<svg height="512" width="512" xmlns="http://www.w3.org/2000/svg" viewBox="0 0 512 512"><circle cx="256" cy="256" fill="#fff" r="256"/><path d="m461.5371 334.8983a220.16 220.16 0 0 0 -171.0965-296.3478 17.6128 17.6128 0 1 0 -5.5105 34.7919 184.9344 184.9344 0 0 1 143.721 248.9322 17.6128 17.6128 0 1 0 32.886 12.6237" fill="#da0000"/><path d="m221.5594 38.5505a220.16 220.16 0 0 0 -171.0965 296.3478 17.6128 17.6128 0 1 0 32.886-12.6237 184.9344 184.9344 0 0 1 143.721-248.9322 17.6128 17.6128 0 1 0 -5.5105-34.7919" fill="#00ac3d"/><path d="m84.9035 394.5512a220.16 220.16 0 0 0 342.193 0 17.6128 17.6128 0 1 0 -27.3755-22.1682 184.9344 184.9344 0 0 1 -287.442 0 17.6128 17.6128 0 1 0 -27.3755 22.1682" fill="#3b62b1"/><path d="m330.04663 223.289c-16.41699 0-29.32339 11.03953-40.65036 17.35738-.24828-.45776-.49115-.92644-.74787-1.39526 7.0434-3.05293 17.61132-11.50836 22.04839-15.82816 30.20243-29.37926 30.20243-76.98933 0-106.37692-30.21642-29.379251-79.19115-29.379251-109.40195 0-30.21643 29.37365-30.21643 76.99766 0 106.37692 4.29475 4.17467 16.10446 12.26737 22.87717 15.24772-.20667.36302-.43252.72556-.63345 1.08835-11.11206-5.92722-24.69943-16.47003-41.60199-16.47003-41.37308 0-74.92427 32.60514-74.92427 72.84532 0 40.25128 33.55119 72.85642 74.92427 72.85642 32.78938 0 60.5696-20.49395 70.73569-48.99137-7.92248 68.09013-27.32536 82.52301-27.32536 82.52301h61.29782s-19.41403-14.43288-27.3365-82.52301c10.16891 28.49742 37.95195 48.99137 70.73841 48.99137 41.39271 0 74.94107-32.60514 74.94107-72.85642 0-40.24018-33.54836-72.84532-74.94107-72.84532z" stroke="#000" stroke-width="0"/></svg>
